<?xml version="1.0" encoding="UTF-8" standalone="no"?>
<!DOCTYPE svg PUBLIC "-//W3C//DTD SVG 1.1//EN" "http://www.w3.org/Graphics/SVG/1.1/DTD/svg11.dtd">
<!-- Généré par Microsoft Visio, SVG Export h.svg Page 1 -->
<svg xmlns="http://www.w3.org/2000/svg" xmlns:xlink="http://www.w3.org/1999/xlink" xmlns:ev="http://www.w3.org/2001/xml-events"
		xmlns:v="http://schemas.microsoft.com/visio/2003/SVGExtensions/" width="7.00219in" height="6.98892in"
		viewBox="0 0 504.158 503.202" xml:space="preserve" color-interpolation-filters="sRGB" class="st2">
	<v:documentProperties v:langID="1036" v:metric="true" v:viewMarkup="false">
		<v:userDefs>
			<v:ud v:nameU="Ifc__CustomPropsLevel" v:val="VT0(0):26"/>
		</v:userDefs>
	</v:documentProperties>

	<style type="text/css">
	<![CDATA[
		.st1 {fill:#d8d8d8;stroke:none;stroke-linecap:butt;stroke-width:1}
		.st2 {fill:none;fill-rule:evenodd;font-size:12px;overflow:visible;stroke-linecap:square;stroke-miterlimit:3}
	]]>
	</style>

	<g v:mID="0" v:index="1" v:groupContext="foregroundPage">
		<title>Page 1</title>
		<v:pageProperties v:drawingScale="39.3701" v:pageScale="0.787402" v:drawingUnits="6" v:shadowOffsetX="9"
				v:shadowOffsetY="-9"/>
		<g id="group585-1" transform="translate(1,-0.984643)" v:mID="585" v:groupContext="group">
			<title>Feuille.585</title>
			<g id="shape586-2" v:mID="586" v:groupContext="shape" transform="translate(279.1,-422.819)">
				<title>Feuille.586</title>
				<rect x="0" y="452.804" width="196" height="50.398" class="st1"/>
			</g>
			<g id="shape587-4" v:mID="587" v:groupContext="shape" transform="translate(47.6032,-254.705)">
				<title>Feuille.587</title>
				<path d="M41.89 487.8 C41.94 484.13 42.66 480.51 44.01 477.1 L45.24 473.97 C45.8 472.57 46.36 471.22 46.92 469.77
							 L46.93 469.77 C48.3 465.85 48.3 461.59 46.93 457.67 L46.03 454.76 L46.03 454.76 C45.77 453.87 45.96
							 452.91 46.54 452.19 C47.1 451.45 48.02 451.06 48.94 451.18 L51.18 451.18 C55.57 451.49 59.77 453.06
							 63.28 455.71 C64.64 456.78 65.81 458.07 66.75 459.52 C67.12 459.08 67.46 458.61 67.76 458.12 C70.26
							 453.97 71.3 449.1 70.73 444.29 C70.43 441.49 69.77 438.74 68.77 436.11 C68.73 435.87 68.73 435.63 68.77
							 435.38 C68.56 434.28 68.99 433.15 69.89 432.47 C70.79 431.89 71.95 431.89 72.86 432.47 L74.48 433.37
							 C75.54 433.93 76.55 434.49 77.5 435.1 L77.5 435.1 C83.35 438.97 87.39 445.03 88.7 451.9 C89.11 453.75
							 89.41 455.62 89.6 457.51 L90.77 456.16 C92.56 454.29 94.6 452.67 96.82 451.35 C97.73 450.71 98.94 450.71
							 99.84 451.35 C100.78 451.97 101.23 453.11 100.97 454.2 L100.8 455.49 C100.8 456.11 100.46 456.72 100.35
							 457.34 L100.35 457.34 C99.57 461.83 100.53 466.46 103.04 470.27 L104.55 472.57 C105.5 474.03 106.45
							 475.42 107.29 476.94 C109.27 480.48 110.42 484.42 110.65 488.48 C110.86 493.94 108.84 499.26 105.06
							 503.2 L151.2 503.2 L151.2 415.23 L0 415.23 L0 503.09 L47.66 503.09 C43.88 498.9 41.82 493.44 41.89 487.8
							 L41.89 487.8 Z" class="st1"/>
			</g>
			<g id="shape588-6" v:mID="588" v:groupContext="shape" transform="translate(2.04636E-14,-2.81841)">
				<title>Feuille.588</title>
				<path d="M102.42 256.8 L0 256.8 L0 503.2 L30.3 503.2 L30.3 317.67 C30.3 316.13 31.55 314.87 33.09 314.87 L213.3 314.87
							 C214.05 314.87 214.76 315.17 215.28 315.69 C215.81 316.22 216.1 316.93 216.1 317.67 L216.1 503.2 L246.4
							 503.2 L246.4 256.8 L102.42 256.8 Z" class="st1"/>
			</g>
			<g id="shape589-8" v:mID="589" v:groupContext="shape" transform="translate(252.058,-2.81841)">
				<title>Feuille.589</title>
				<path d="M0 503.2 L66.25 503.2 L66.25 370.82 C66.25 369.28 67.51 368.02 69.05 368.02 L181.05 368.02 C181.8 368.02
							 182.51 368.32 183.03 368.84 C183.56 369.37 183.85 370.08 183.85 370.82 L183.85 503.2 L250.1 503.2 L250.1
							 88.8 L0 88.8 L0 503.2 ZM176.79 120.83 C176.79 119.29 178.05 118.03 179.59 118.03 L228.76 118.03 C229.5
							 118.03 230.21 118.33 230.74 118.85 C231.27 119.38 231.56 120.09 231.56 120.83 L231.56 170 C231.56 170.74
							 231.27 171.45 230.74 171.98 C230.21 172.5 229.5 172.8 228.76 172.8 L179.59 172.8 C178.05 172.8 176.79
							 171.55 176.79 170 L176.79 120.83 ZM176.79 204.83 C176.79 203.29 178.05 202.03 179.59 202.03 L228.76
							 202.03 C229.5 202.03 230.21 202.33 230.74 202.85 C231.27 203.38 231.56 204.09 231.56 204.83 L231.56
							 254 C231.56 254.74 231.27 255.45 230.74 255.98 C230.21 256.5 229.5 256.8 228.76 256.8 L179.59 256.8
							 C178.05 256.8 176.79 255.55 176.79 254 L176.79 204.83 ZM176.79 288.83 C176.79 287.29 178.05 286.03 179.59
							 286.03 L228.76 286.03 C229.5 286.03 230.21 286.33 230.74 286.85 C231.27 287.38 231.56 288.09 231.56
							 288.83 L231.56 338 C231.56 338.74 231.27 339.45 230.74 339.98 C230.21 340.5 229.5 340.8 228.76 340.8
							 L179.59 340.8 C178.05 340.8 176.79 339.55 176.79 338 L176.79 288.83 ZM97.94 120.83 C97.94 119.29 99.2
							 118.03 100.75 118.03 L149.91 118.03 C151.44 118.06 152.68 119.3 152.71 120.83 L152.71 170 C152.71 170.74
							 152.42 171.45 151.89 171.98 C151.37 172.5 150.66 172.8 149.91 172.8 L100.46 172.8 C99.03 172.66 97.94
							 171.44 97.94 170 L97.94 120.83 ZM97.94 204.83 C97.94 203.29 99.2 202.03 100.75 202.03 L149.91 202.03
							 C151.44 202.06 152.68 203.3 152.71 204.83 L152.71 254 C152.71 254.74 152.42 255.45 151.89 255.98 C151.37
							 256.5 150.66 256.8 149.91 256.8 L100.46 256.8 C99.03 256.66 97.94 255.44 97.94 254 L97.94 204.83 ZM97.94
							 288.83 C97.94 287.29 99.2 286.03 100.75 286.03 L149.91 286.03 C151.44 286.06 152.68 287.3 152.71 288.83
							 L152.71 338 C152.71 338.74 152.42 339.45 151.89 339.98 C151.37 340.5 150.66 340.8 149.91 340.8 L100.46
							 340.8 C99.03 340.66 97.94 339.44 97.94 338 L97.94 288.83 ZM18.76 120.83 C18.79 119.3 20.03 118.06 21.56
							 118.03 L70.73 118.03 C71.47 118.03 72.18 118.33 72.71 118.85 C73.23 119.38 73.53 120.09 73.53 120.83
							 L73.53 170 C73.53 170.74 73.23 171.45 72.71 171.98 C72.18 172.5 71.47 172.8 70.73 172.8 L21.28 172.8
							 C19.73 172.8 18.48 171.55 18.48 170 L18.76 120.83 ZM18.76 204.83 C18.79 203.3 20.03 202.06 21.56 202.03
							 L70.73 202.03 C71.47 202.03 72.18 202.33 72.71 202.85 C73.23 203.38 73.53 204.09 73.53 204.83 L73.53
							 254 C73.53 254.74 73.23 255.45 72.71 255.98 C72.18 256.5 71.47 256.8 70.73 256.8 L21.28 256.8 C19.73
							 256.8 18.48 255.55 18.48 254 L18.76 204.83 ZM18.76 288.83 C18.79 287.3 20.03 286.06 21.56 286.03 L70.73
							 286.03 C71.47 286.03 72.18 286.33 72.71 286.85 C73.23 287.38 73.53 288.09 73.53 288.83 L73.53 338 C73.53
							 338.74 73.23 339.45 72.71 339.98 C72.18 340.5 71.47 340.8 70.73 340.8 L21.28 340.8 C19.73 340.8 18.48
							 339.55 18.48 338 L18.76 288.83 Z" class="st1"/>
			</g>
			<g id="shape590-10" v:mID="590" v:groupContext="shape" transform="translate(379.9,-2.80842)">
				<title>Feuille.590</title>
				<path d="M0 373.61 L50.4 373.61 L50.4 503.2 L0 503.2 L0 373.61 Z" class="st1"/>
			</g>
			<g id="shape591-12" v:mID="591" v:groupContext="shape" transform="translate(323.9,-2.80842)">
				<title>Feuille.591</title>
				<rect x="0" y="373.612" width="50.398" height="129.59" class="st1"/>
			</g>
			<g id="shape592-14" v:mID="592" v:groupContext="shape" transform="translate(253.9,-478.819)">
				<title>Feuille.592</title>
				<path d="M0 480.8 L246.4 480.8 L246.4 503.2 L0 503.2 L0 480.8 Z" class="st1"/>
			</g>
			<g id="shape593-16" v:mID="593" v:groupContext="shape" transform="translate(276.14,-338.822)">
				<title>Feuille.593</title>
				<path d="M0 459.64 L43.57 459.64 L43.57 503.2 L0 503.2 L0 459.64 Z" class="st1"/>
			</g>
			<g id="shape594-18" v:mID="594" v:groupContext="shape" transform="translate(355.32,-338.822)">
				<title>Feuille.594</title>
				<rect x="0" y="459.636" width="43.566" height="43.566" class="st1"/>
			</g>
			<g id="shape595-20" v:mID="595" v:groupContext="shape" transform="translate(434.45,-338.822)">
				<title>Feuille.595</title>
				<rect x="0" y="459.636" width="43.566" height="43.566" class="st1"/>
			</g>
			<g id="shape596-22" v:mID="596" v:groupContext="shape" transform="translate(276.14,-254.822)">
				<title>Feuille.596</title>
				<path d="M0 459.64 L43.57 459.64 L43.57 503.2 L0 503.2 L0 459.64 Z" class="st1"/>
			</g>
			<g id="shape597-24" v:mID="597" v:groupContext="shape" transform="translate(355.32,-254.822)">
				<title>Feuille.597</title>
				<rect x="0" y="459.636" width="43.566" height="43.566" class="st1"/>
			</g>
			<g id="shape598-26" v:mID="598" v:groupContext="shape" transform="translate(434.45,-254.822)">
				<title>Feuille.598</title>
				<rect x="0" y="459.636" width="43.566" height="43.566" class="st1"/>
			</g>
			<g id="shape599-28" v:mID="599" v:groupContext="shape" transform="translate(276.14,-170.822)">
				<title>Feuille.599</title>
				<path d="M0 459.64 L43.57 459.64 L43.57 503.2 L0 503.2 L0 459.64 Z" class="st1"/>
			</g>
			<g id="shape600-30" v:mID="600" v:groupContext="shape" transform="translate(355.32,-170.822)">
				<title>Feuille.600</title>
				<rect x="0" y="459.636" width="43.566" height="43.566" class="st1"/>
			</g>
			<g id="shape601-32" v:mID="601" v:groupContext="shape" transform="translate(434.45,-170.822)">
				<title>Feuille.601</title>
				<rect x="0" y="459.636" width="43.566" height="43.566" class="st1"/>
			</g>
			<g id="shape602-34" v:mID="602" v:groupContext="shape" transform="translate(95.1083,-254.988)">
				<title>Feuille.602</title>
				<path d="M8.1 503.2 L49.09 503.2 L50.21 502.42 C50.69 502.14 51.12 501.8 51.5 501.41 C55.37 498.39 57.47 493.64 57.1
							 488.76 C56.93 485.54 56.01 482.42 54.41 479.63 C53.69 478.28 52.79 476.99 51.95 475.71 C51.11 474.42
							 50.83 474.08 50.32 473.24 C47.85 469.36 46.53 464.85 46.52 460.25 C44.25 462.66 42.45 465.47 41.2 468.54
							 C40.73 469.71 39.55 470.44 38.29 470.33 C37.04 470.16 36.05 469.21 35.82 467.98 C36.01 467.62 36.23
							 467.28 36.49 466.97 C37.24 462.43 37.11 457.8 36.1 453.31 C35.13 448.5 32.49 444.2 28.65 441.16 C28.84
							 442.16 28.97 443.16 29.05 444.18 C29.77 450.17 28.45 456.23 25.29 461.37 C24.02 463.48 22.41 465.37
							 20.54 466.97 C19.82 467.55 18.87 467.75 17.98 467.51 C17.09 467.26 16.37 466.6 16.05 465.74 L15.77 464.95
							 L15.77 464.96 C15.16 463.19 14.05 461.63 12.58 460.48 C10.46 458.89 7.98 457.85 5.36 457.45 C6.72 462.24
							 6.52 467.34 4.8 472.01 C4.29 473.52 3.68 474.92 3.12 476.38 L1.89 479.4 C0.77 482.16 0.18 485.1 0.15
							 488.08 C0 493.26 2.25 498.23 6.25 501.52 C6.7 502.14 7.43 502.64 8.1 503.2 L8.1 503.2 Z" class="st1"/>
			</g>
			<g id="shape603-36" v:mID="603" v:groupContext="shape" transform="translate(101.077,-162.416)">
				<title>Feuille.603</title>
				<path d="M37.63 496.48 C37.65 494.34 36.8 492.28 35.29 490.76 C33.77 489.24 31.71 488.4 29.57 488.42 L8.12 488.42
							 C5.97 488.4 3.91 489.24 2.38 490.76 C0.86 492.27 0 494.33 0 496.48 L0 503.2 L37.47 503.2 L37.63 496.48
							 Z" class="st1"/>
			</g>
			<g id="shape604-38" v:mID="604" v:groupContext="shape" transform="translate(58.4048,-0.018425)">
				<title>Feuille.604</title>
				<path d="M19.27 503.2 C22.79 503.2 25.65 500.34 25.65 496.82 L25.65 488.36 L0 488.36 L0 496.82 C0 498.51 0.67 500.14
							 1.87 501.33 C3.07 502.53 4.69 503.2 6.39 503.2 L19.27 503.2 Z" class="st1"/>
			</g>
			<g id="shape605-40" v:mID="605" v:groupContext="shape" transform="translate(155.959,1.7053E-13)">
				<title>Feuille.605</title>
				<path d="M0 496.8 C0 498.5 0.67 500.12 1.87 501.32 C3.07 502.51 4.69 503.19 6.38 503.19 L19.21 503.19 C20.91 503.2
							 22.55 502.53 23.76 501.33 C24.97 500.14 25.65 498.51 25.65 496.8 L25.65 488.35 L0 488.35 L0 496.8 Z"
						class="st1"/>
			</g>
			<g id="shape606-42" v:mID="606" v:groupContext="shape" transform="translate(44.57,-20.4004)">
				<title>Feuille.606</title>
				<path d="M111.39 503.14 L146.17 503.14 L146.16 503.14 C148.75 503.12 150.84 501.03 150.87 498.44 L150.87 456.39 C150.87
							 455.14 150.37 453.94 149.49 453.06 C148.61 452.18 147.41 451.68 146.16 451.68 L4.7 451.68 C2.11 451.68
							 0 453.79 0 456.39 L0 498.5 L0 498.5 C0.03 501.08 2.12 503.17 4.7 503.2 L111.38 503.2 L111.39 503.14
							 ZM124.21 466.13 C128.74 466.13 132.83 468.86 134.56 473.04 C136.29 477.23 135.34 482.05 132.13 485.25
							 C128.93 488.45 124.11 489.41 119.93 487.67 C115.74 485.94 113.01 481.86 113.01 477.33 C113.01 471.14
							 118.03 466.13 124.21 466.13 L124.21 466.13 ZM26.66 488.53 L26.66 488.53 C22.13 488.53 18.05 485.8 16.31
							 481.62 C14.58 477.43 15.54 472.61 18.74 469.41 C21.94 466.21 26.76 465.25 30.94 466.98 C35.13 468.71
							 37.86 472.8 37.86 477.33 C37.87 480.31 36.7 483.17 34.6 485.28 C32.5 487.4 29.64 488.58 26.66 488.58
							 L26.66 488.53 Z" class="st1"/>
			</g>
			<g id="shape607-44" v:mID="607" v:groupContext="shape" transform="translate(55.44,-77.5754)">
				<title>Feuille.607</title>
				<rect x="0" y="491.159" width="129.14" height="12.043" class="st1"/>
			</g>
			<g id="shape608-46" v:mID="608" v:groupContext="shape" transform="translate(55.4454,-136.326)">
				<title>Feuille.608</title>
				<path d="M129.13 502.92 L129.13 488.31 C129.13 486.94 128.59 485.63 127.63 484.66 C126.66 483.7 125.35 483.15 123.98
							 483.15 L5.15 483.15 C2.31 483.15 0 485.46 0 488.31 L0 503.2 L129.14 503.2 L129.13 502.92 Z"
						class="st1"/>
			</g>
			<g id="shape609-48" v:mID="609" v:groupContext="shape" transform="translate(65.1909,-40.2378)">
				<title>Feuille.609</title>
				<path d="M6.04 491.56 C3.77 491.56 1.73 492.92 0.87 495.02 C0 497.11 0.48 499.52 2.08 501.12 C3.68 502.72 6.09 503.2
							 8.18 502.33 C10.28 501.47 11.64 499.42 11.64 497.16 C11.64 495.67 11.05 494.25 10 493.2 C8.95 492.15
							 7.52 491.56 6.04 491.56 Z" class="st1"/>
			</g>
			<g id="shape610-50" v:mID="610" v:groupContext="shape" transform="translate(163.188,-40.6184)">
				<title>Feuille.610</title>
				<path d="M5.6 503.2 C7.86 503.2 9.91 501.84 10.77 499.75 C11.64 497.66 11.16 495.25 9.56 493.64 C7.96 492.04 5.55
							 491.56 3.46 492.43 C1.36 493.3 0 495.34 0 497.6 C0 499.09 0.59 500.51 1.64 501.57 C2.69 502.61 4.11
							 503.2 5.6 503.2 Z" class="st1"/>
			</g>
			<g id="shape611-52" v:mID="611" v:groupContext="shape" transform="translate(55.44,-95.2714)">
				<title>Feuille.611</title>
				<rect x="0" y="467.475" width="61.77" height="35.727" class="st1"/>
			</g>
			<g id="shape612-54" v:mID="612" v:groupContext="shape" transform="translate(122.81,-95.2714)">
				<title>Feuille.612</title>
				<path d="M0 467.48 L61.77 467.48 L61.77 503.2 L0 503.2 L0 467.48 Z" class="st1"/>
			</g>
		</g>
	</g>
</svg>
